PathFileType	4	(X/Y/Z)	/Users/itak/Documents/Research/Walk-IL/dataset/trc/00046_00004.trc
DataRate	CameraRate	NumFrames	NumMarkers	Units	OrigDataRate	OrigDataStartFrame	OrigNumFrames
100.000000	100.000000	4	53	mm	100.000000	361	482
Frame#	Time	RPSI			LPSI			L3			STRN			T10			C7			CLAV			RBAK			LBAK			LSHO			LUPA			LAEL			LAOL			LWTS			LWPS			LFRA			LIFD			LHPS			LHTS			RSHO			RUPA			RAEL			RAOL			RWTS			RWPS			RFRA			RIFD			RHTS			RHPS			RBHD			LFHD			RFHD			LBHD			LHIP			RASI			LASI			LKNE			LTHI			LANK			LTIP			LTOE			LMT1			LMT5			LHEE			RKNE			RTHI			RANK			RTIP			RTOE			RMT1			RMT5			RHEE			RHIP			
		X1	Y1	Z1	X2	Y2	Z2	X3	Y3	Z3	X4	Y4	Z4	X5	Y5	Z5	X6	Y6	Z6	X7	Y7	Z7	X8	Y8	Z8	X9	Y9	Z9	X10	Y10	Z10	X11	Y11	Z11	X12	Y12	Z12	X13	Y13	Z13	X14	Y14	Z14	X15	Y15	Z15	X16	Y16	Z16	X17	Y17	Z17	X18	Y18	Z18	X19	Y19	Z19	X20	Y20	Z20	X21	Y21	Z21	X22	Y22	Z22	X23	Y23	Z23	X24	Y24	Z24	X25	Y25	Z25	X26	Y26	Z26	X27	Y27	Z27	X28	Y28	Z28	X29	Y29	Z29	X30	Y30	Z30	X31	Y31	Z31	X32	Y32	Z32	X33	Y33	Z33	X34	Y34	Z34	X35	Y35	Z35	X36	Y36	Z36	X37	Y37	Z37	X38	Y38	Z38	X39	Y39	Z39	X40	Y40	Z40	X41	Y41	Z41	X42	Y42	Z42	X43	Y43	Z43	X44	Y44	Z44	X45	Y45	Z45	X46	Y46	Z46	X47	Y47	Z47	X48	Y48	Z48	X49	Y49	Z49	X50	Y50	Z50	X51	Y51	Z51	X52	Y52	Z52	X53	Y53	Z53	

362	3.61	11.11482810974121	1062.467651367188	793.9889526367188	152.0629577636719	1055.859008789062	712.1508178710938	86.61892700195312	1116.925537109375	740.5701904296875	175.8567504882812	1314.325439453125	945.7720336914062	86.05801391601562	1258.919311523438	712.211669921875	116.1354827880859	1527.012084960938	749.0399780273438	162.9562072753906	1439.5537109375	902.6653442382812	23.60007667541504	1388.48583984375	729.9568481445312	202.7672119140625	1487.402465820312	699.851318359375	305.5202331542969	1495.646240234375	773.4500732421875	366.6048278808594	1371.304321289062	716.6582641601562	391.1437683105469	1156.041748046875	696.0486450195312	286.7028503417969	1144.360717773438	681.1262817382812	378.1806945800781	895.9020385742188	780.2901611328125	385.08447265625	888.1129150390625	691.958984375	402.1903991699219	1039.802490234375	696.734619140625	368.5528564453125	709.9623413085938	797.9982299804688	396.97119140625	796.0789794921875	715.868408203125	396.896484375	800.9733276367188	787.3550415039062	-24.9499340057373	1513.864501953125	878.5931396484375	-96.55519866943359	1444.414184570312	887.892333984375	-135.5697937011719	1176.748901367188	860.7250366210938	-43.63104629516602	1147.983276367188	833.5978393554688	-55.26885223388672	931.9734497070312	999.7374267578125	-136.0013122558594	908.6790161132812	960.2298583984375	-144.710205078125	1099.716430664062	883.0447387695312	-25.69120597839355	751.7675170898438	1033.309936523438	-52.74849319458008	828.2158203125	1049.00439453125	-117.8541030883789	814.982177734375	1012.000122070312	204.8736572265625	1716.591064453125	800.2315673828125	82.50262451171875	1719.243896484375	980.9373779296875	180.2432861328125	1725.81298828125	979.9948120117188	61.15098571777344	1704.193603515625	807.9772338867188	294.1488342285156	954.2371215820312	741.1193237304688	92.78054809570312	986.8885498046875	996.4144287109375	293.0252685546875	1000.463745117188	877.3501586914062	325.9339599609375	501.6849975585938	808.5030517578125	324.9712524414062	648.1312866210938	772.87744140625	154.3711242675781	196.5584259033203	431.2843627929688	250.3411102294922	354.9739074707031	603.4224243164062	183.9109344482422	36.97364044189453	586.750244140625	147.5682983398438	81.03973388671875	565.840087890625	217.6007537841797	107.9463577270508	490.3354797363281	85.86311340332031	246.6866912841797	421.9241943359375	68.23252105712891	529.9343872070312	1014.052551269531	0.5194486975669861	791.3901977539062	988.9591674804688	99.89495086669922	40.98892211914062	957.7371826171875	72.4119873046875	402.1006164550781	1009.965576171875	197.1189270019531	43.69140625	1172.324829101562	210.1987609863281	48.70220947265625	1104.495849609375	112.67138671875	41.63702392578125	1107.391845703125	131.2717590332031	42.25468063354492	894.2637329101562	-20.6884708404541	950.6604614257812	945.055908203125	
363	3.62	12.18795204162598	1063.265502929688	799.2495727539062	153.2497863769531	1056.478637695312	717.5941772460938	87.78968048095703	1117.71240234375	746.08984375	177.1931304931641	1314.850952148438	951.4047241210938	87.33006286621094	1259.770874023438	717.8812866210938	117.7635498046875	1527.786376953125	754.9159545898438	164.5599517822266	1440.130004882812	908.4471435546875	25.01089859008789	1389.380004882812	735.7698974609375	204.3289947509766	1488.069580078125	705.6411743164062	307.1317443847656	1496.091430664062	779.1537475585938	367.8777465820312	1371.480590820312	722.4471435546875	391.8247680664062	1156.098876953125	702.146728515625	287.2900390625	1144.595092773438	687.64990234375	378.663818359375	895.9328002929688	786.3352661132812	385.0618591308594	888.2169189453125	697.9645385742188	402.5710144042969	1039.8271484375	702.7787475585938	368.994873046875	710.0197143554688	803.9540405273438	396.8963928222656	796.1260986328125	721.6992797851562	397.3848266601562	801.0267333984375	793.2316284179688	-23.34514427185059	1514.659301757812	884.5388793945312	-95.02825164794922	1445.383666992188	893.8048706054688	-134.9509735107422	1177.752075195312	866.7255249023438	-43.12107086181641	1148.757934570312	839.44921875	-53.43320083618164	934.6983032226562	1007.959838867188	-134.1746063232422	910.568603515625	969.0328369140625	-143.9797668457031	1100.685302734375	889.6358032226562	-23.1092643737793	755.06298828125	1044.097900390625	-50.33796310424805	831.73681640625	1058.741577148438	-115.5233459472656	817.657958984375	1022.067504882812	206.6573791503906	1717.195068359375	805.9866333007812	83.98737335205078	1720.172119140625	986.503662109375	181.7338562011719	1726.728881835938	985.69580078125	62.97106552124023	1704.806640625	813.5330810546875	295.6158752441406	954.6935424804688	747.2008056640625	93.46192932128906	987.3746337890625	1001.771240234375	293.9498291015625	1001.108764648438	883.1154174804688	329.927978515625	502.6380004882812	822.0260620117188	328.4424743652344	648.6814575195312	783.7608642578125	160.444580078125	198.3537445068359	443.381103515625	255.4952697753906	356.13818359375	616.4797973632812	189.6038665771484	38.88606643676758	599.3439331054688	153.0819396972656	82.90629577636719	578.119140625	223.7939147949219	110.5027770996094	503.3127746582031	91.71450042724609	247.9937591552734	433.2923278808594	68.41428375244141	529.687744140625	1016.471313476562	1.049914598464966	791.542724609375	993.1381225585938	99.93059539794922	41.01685333251953	957.746337890625	72.43891143798828	401.9016723632812	1011.618347167969	197.1213989257812	43.62265777587891	1172.341796875	210.2159118652344	48.63755035400391	1104.522094726562	112.675178527832	41.59580612182617	1107.4013671875	131.3006591796875	42.28633499145508	894.2647094726562	-19.99032402038574	951.1505737304688	950.0155029296875	
364	3.63	13.26387786865234	1064.016845703125	804.35986328125	154.4365692138672	1057.095947265625	722.894287109375	88.93775939941406	1118.46142578125	751.4347534179688	178.5372467041016	1315.352661132812	956.8843383789062	88.58400726318359	1260.596557617188	723.391845703125	119.3786697387695	1528.546020507812	760.6517944335938	166.1722259521484	1440.688720703125	914.07177734375	26.39853668212891	1390.2626953125	741.4292602539062	205.8559112548828	1488.718994140625	711.27001953125	308.7171630859375	1496.518676757812	784.6857299804688	369.1375732421875	1371.6435546875	728.0733032226562	392.5235900878906	1156.148315429688	708.1282958984375	287.9248352050781	1144.802368164062	694.0253295898438	379.2647094726562	896.012451171875	792.39599609375	385.1286315917969	888.3092041015625	703.9896850585938	403.0216064453125	1039.849365234375	708.7546997070312	369.6094360351562	710.1204223632812	810.0366821289062	396.963623046875	796.2017822265625	727.60009765625	398.0053405761719	801.1332397460938	799.176513671875	-21.73777198791504	1515.425903320312	890.3474731445312	-93.48899078369141	1446.304443359375	899.6132202148438	-134.2767028808594	1178.704223632812	872.6514282226562	-42.56497955322266	1149.48583984375	845.2000122070312	-51.57935333251953	937.3251342773438	1015.987365722656	-132.3492889404297	912.4237060546875	977.6511840820312	-143.1864013671875	1101.619995117188	896.1422729492188	-20.58610725402832	758.2779541015625	1054.549072265625	-47.96965408325195	835.12353515625	1068.18701171875	-113.2242736816406	820.2772827148438	1031.890869140625	208.4271240234375	1717.794311523438	811.6541137695312	85.50656127929688	1721.022583007812	992.0082397460938	183.2547607421875	1727.570068359375	991.3141479492188	64.77039337158203	1705.403198242188	819.0109252929688	297.0866394042969	955.1943359375	753.1408081054688	94.10388946533203	987.8442993164062	1006.97412109375	294.8681335449219	1001.779846191406	888.7606811523438	333.6109313964844	503.7898254394531	835.3389282226562	331.70947265625	649.3575439453125	794.4110717773438	166.8919830322266	198.8797454833984	456.1576538085938	260.6480712890625	356.8730163574219	629.7042236328125	195.8353576660156	40.71535110473633	613.5178833007812	159.0357971191406	84.37730407714844	591.6800537109375	230.4405059814453	112.2238235473633	517.4747314453125	97.92668151855469	247.8855590820312	444.9710083007812	68.63175201416016	529.4423217773438	1018.823120117188	1.571773409843445	791.6585693359375	997.130126953125	99.99503326416016	41.03772354125977	957.7666625976562	72.50601196289062	401.7017822265625	1013.227355957031	197.1214599609375	43.55035400390625	1172.368530273438	210.2382202148438	48.58004760742188	1104.54736328125	112.6840667724609	41.55664443969727	1107.4091796875	131.3355102539062	42.31782531738281	894.2687377929688	-19.30805015563965	951.5834350585938	954.77734375	
365	3.64	14.36257553100586	1064.737060546875	809.3243408203125	155.6530456542969	1057.725341796875	728.0659790039062	90.08840942382812	1119.181396484375	756.6189575195312	179.8817596435547	1315.852783203125	962.2262573242188	89.82088470458984	1261.397705078125	728.7540893554688	120.975212097168	1529.295776367188	766.2403564453125	167.7720031738281	1441.250122070312	919.5441284179688	27.76683044433594	1391.139038085938	746.939697265625	207.3466339111328	1489.356201171875	716.7445068359375	310.274658203125	1496.942016601562	790.06201171875	370.3902893066406	1371.818359375	733.5507202148438	393.256591796875	1156.215454101562	713.9934692382812	288.617431640625	1145.010620117188	700.2272338867188	379.9605407714844	896.165771484375	798.4756469726562	385.3102416992188	888.4126586914062	710.0421142578125	403.5621948242188	1039.89697265625	714.6661987304688	370.3273620605469	710.2933959960938	816.249755859375	397.1951599121094	796.3313598632812	733.5938720703125	398.7171630859375	801.3114624023438	805.2037353515625	-20.12819671630859	1516.193969726562	896.0037841796875	-91.95411682128906	1447.20849609375	905.295166015625	-133.5155487060547	1179.63037109375	878.4992065429688	-41.92344284057617	1150.201049804688	850.8720703125	-49.71511840820312	939.8560180664062	1023.811218261719	-130.5255126953125	914.2523193359375	986.048095703125	-142.3046722412109	1102.546875	902.5511474609375	-18.12647819519043	761.4042358398438	1064.634765625	-45.67428207397461	838.3588256835938	1077.313354492188	-110.9745025634766	822.840576171875	1041.416259765625	210.1815338134766	1718.404174804688	817.2290649414062	87.05795288085938	1721.80322265625	997.4439697265625	184.802490234375	1728.34033203125	996.8441162109375	66.54224395751953	1706.007446289062	824.4038696289062	298.5851135253906	955.7562255859375	758.9608154296875	94.70087432861328	988.3031005859375	1012.02880859375	295.7763671875	1002.489990234375	894.3028564453125	336.9598693847656	505.129150390625	848.4189453125	334.76171875	650.1509399414062	804.82080078125	173.7037506103516	198.1417236328125	469.595947265625	265.8072204589844	357.15380859375	643.0848999023438	202.4770202636719	42.33520889282227	629.1819458007812	165.3478851318359	85.38697814941406	606.4484252929688	237.4650268554688	113.0634307861328	532.7452392578125	104.5075759887695	246.3890686035156	456.9713439941406	68.88580322265625	529.2000122070312	1021.106750488281	2.08189868927002	791.7327880859375	1000.940673828125	100.0955657958984	41.04704666137695	957.80078125	72.60894775390625	401.5043334960938	1014.789489746094	197.1202392578125	43.47586059570312	1172.406005859375	210.2636566162109	48.52912521362305	1104.571655273438	112.6935348510742	41.51889038085938	1107.412719726562	131.3751831054688	42.34854888916016	894.274658203125	-18.64696311950684	951.9657592773438	959.3351440429688	
